<?xml version="1.0" encoding="UTF-8" standalone="no"?>
<!DOCTYPE svg PUBLIC "-//W3C//DTD SVG 1.1//EN"
 "http://www.w3.org/Graphics/SVG/1.1/DTD/svg11.dtd">
<!-- Generated by graphviz version 2.43.0 (0)
 -->
<!-- Title: query_plan Pages: 1 -->
<svg width="2284pt" height="1254pt"
 viewBox="0.00 0.00 2284.00 1254.00" xmlns="http://www.w3.org/2000/svg" xmlns:xlink="http://www.w3.org/1999/xlink">
<g id="graph0" class="graph" transform="scale(1 1) rotate(0) translate(4 1250)">
<title>query_plan</title>
<polygon fill="white" stroke="transparent" points="-4,4 -4,-1250 2280,-1250 2280,4 -4,4"/>
<g id="clust1" class="cluster">
<title>cluster_1</title>
<path fill="none" stroke="lightgray" d="M187,-1128C187,-1128 1191,-1128 1191,-1128 1197,-1128 1203,-1134 1203,-1140 1203,-1140 1203,-1226 1203,-1226 1203,-1232 1197,-1238 1191,-1238 1191,-1238 187,-1238 187,-1238 181,-1238 175,-1232 175,-1226 175,-1226 175,-1140 175,-1140 175,-1134 181,-1128 187,-1128"/>
<text text-anchor="middle" x="689" y="-1221.2" font-family="bold" font-size="16.00">Level 1</text>
</g>
<g id="clust2" class="cluster">
<title>cluster_2</title>
<path fill="none" stroke="lightgray" d="M20,-988C20,-988 1966,-988 1966,-988 1972,-988 1978,-994 1978,-1000 1978,-1000 1978,-1086 1978,-1086 1978,-1092 1972,-1098 1966,-1098 1966,-1098 20,-1098 20,-1098 14,-1098 8,-1092 8,-1086 8,-1086 8,-1000 8,-1000 8,-994 14,-988 20,-988"/>
<text text-anchor="middle" x="993" y="-1081.2" font-family="bold" font-size="16.00">Level 2</text>
</g>
<g id="clust3" class="cluster">
<title>cluster_3</title>
<path fill="none" stroke="lightgray" d="M1002,-848C1002,-848 2256,-848 2256,-848 2262,-848 2268,-854 2268,-860 2268,-860 2268,-946 2268,-946 2268,-952 2262,-958 2256,-958 2256,-958 1002,-958 1002,-958 996,-958 990,-952 990,-946 990,-946 990,-860 990,-860 990,-854 996,-848 1002,-848"/>
<text text-anchor="middle" x="1629" y="-941.2" font-family="bold" font-size="16.00">Level 3</text>
</g>
<g id="clust4" class="cluster">
<title>cluster_4</title>
<path fill="none" stroke="lightgray" d="M980,-708C980,-708 1818,-708 1818,-708 1824,-708 1830,-714 1830,-720 1830,-720 1830,-806 1830,-806 1830,-812 1824,-818 1818,-818 1818,-818 980,-818 980,-818 974,-818 968,-812 968,-806 968,-806 968,-720 968,-720 968,-714 974,-708 980,-708"/>
<text text-anchor="middle" x="1399" y="-801.2" font-family="bold" font-size="16.00">Level 4</text>
</g>
<g id="clust5" class="cluster">
<title>cluster_5</title>
<path fill="none" stroke="lightgray" d="M1225,-568C1225,-568 1609,-568 1609,-568 1615,-568 1621,-574 1621,-580 1621,-580 1621,-666 1621,-666 1621,-672 1615,-678 1609,-678 1609,-678 1225,-678 1225,-678 1219,-678 1213,-672 1213,-666 1213,-666 1213,-580 1213,-580 1213,-574 1219,-568 1225,-568"/>
<text text-anchor="middle" x="1417" y="-661.2" font-family="bold" font-size="16.00">Level 5</text>
</g>
<g id="clust6" class="cluster">
<title>cluster_6</title>
<path fill="none" stroke="lightgray" d="M701,-428C701,-428 1053,-428 1053,-428 1059,-428 1065,-434 1065,-440 1065,-440 1065,-526 1065,-526 1065,-532 1059,-538 1053,-538 1053,-538 701,-538 701,-538 695,-538 689,-532 689,-526 689,-526 689,-440 689,-440 689,-434 695,-428 701,-428"/>
<text text-anchor="middle" x="877" y="-521.2" font-family="bold" font-size="16.00">Level 6</text>
</g>
<g id="clust7" class="cluster">
<title>cluster_7</title>
<path fill="none" stroke="lightgray" d="M118,-288C118,-288 1971,-288 1971,-288 1977,-288 1983,-294 1983,-300 1983,-300 1983,-386 1983,-386 1983,-392 1977,-398 1971,-398 1971,-398 118,-398 118,-398 112,-398 106,-392 106,-386 106,-386 106,-300 106,-300 106,-294 112,-288 118,-288"/>
<text text-anchor="middle" x="1044.5" y="-381.2" font-family="bold" font-size="16.00">Level 7</text>
</g>
<g id="clust8" class="cluster">
<title>cluster_8</title>
<path fill="none" stroke="lightgray" d="M996,-148C996,-148 2056,-148 2056,-148 2062,-148 2068,-154 2068,-160 2068,-160 2068,-246 2068,-246 2068,-252 2062,-258 2056,-258 2056,-258 996,-258 996,-258 990,-258 984,-252 984,-246 984,-246 984,-160 984,-160 984,-154 990,-148 996,-148"/>
<text text-anchor="middle" x="1526" y="-241.2" font-family="bold" font-size="16.00">Level 8</text>
</g>
<g id="clust9" class="cluster">
<title>cluster_9</title>
<path fill="none" stroke="lightgray" d="M1950,-8C1950,-8 2056,-8 2056,-8 2062,-8 2068,-14 2068,-20 2068,-20 2068,-106 2068,-106 2068,-112 2062,-118 2056,-118 2056,-118 1950,-118 1950,-118 1944,-118 1938,-112 1938,-106 1938,-106 1938,-20 1938,-20 1938,-14 1944,-8 1950,-8"/>
<text text-anchor="middle" x="2003" y="-101.2" font-family="bold" font-size="16.00">Level 9</text>
</g>
<!-- 0 -->
<g id="node1" class="node">
<title>0</title>
<path fill="lightblue" stroke="black" d="M787,-1204C787,-1204 713,-1204 713,-1204 707,-1204 701,-1198 701,-1192 701,-1192 701,-1148 701,-1148 701,-1142 707,-1136 713,-1136 713,-1136 787,-1136 787,-1136 793,-1136 799,-1142 799,-1148 799,-1148 799,-1192 799,-1192 799,-1198 793,-1204 787,-1204"/>
<text text-anchor="middle" x="750" y="-1188.8" font-family="Times,serif" font-size="14.00">0</text>
<text text-anchor="middle" x="750" y="-1173.8" font-family="Times,serif" font-size="14.00">Type: SeqScan</text>
<text text-anchor="middle" x="750" y="-1158.8" font-family="Times,serif" font-size="14.00">Cost: 0..18</text>
<text text-anchor="middle" x="750" y="-1143.8" font-family="Times,serif" font-size="14.00">Rows: 1000</text>
</g>
<!-- 5 -->
<g id="node8" class="node">
<title>5</title>
<path fill="lightblue" stroke="black" d="M1107,-1064C1107,-1064 851,-1064 851,-1064 845,-1064 839,-1058 839,-1052 839,-1052 839,-1008 839,-1008 839,-1002 845,-996 851,-996 851,-996 1107,-996 1107,-996 1113,-996 1119,-1002 1119,-1008 1119,-1008 1119,-1052 1119,-1052 1119,-1058 1113,-1064 1107,-1064"/>
<text text-anchor="middle" x="979" y="-1048.8" font-family="Times,serif" font-size="14.00">5</text>
<text text-anchor="middle" x="979" y="-1033.8" font-family="Times,serif" font-size="14.00">Type: MergeJoin</text>
<text text-anchor="middle" x="979" y="-1018.8" font-family="Times,serif" font-size="14.00">Cost: 896.2145404007833..916.2145404007833</text>
<text text-anchor="middle" x="979" y="-1003.8" font-family="Times,serif" font-size="14.00">Rows: 1000</text>
</g>
<!-- 0&#45;&gt;5 -->
<g id="edge43" class="edge">
<title>0&#45;&gt;5</title>
<path fill="none" stroke="black" d="M799.36,-1138.72C805.3,-1135.1 811.28,-1131.46 817,-1128 849.16,-1108.53 885.02,-1087.04 914.8,-1069.25"/>
<polygon fill="black" stroke="black" points="916.65,-1072.22 923.44,-1064.09 913.06,-1066.21 916.65,-1072.22"/>
</g>
<!-- 6 -->
<g id="node9" class="node">
<title>6</title>
<path fill="lightblue" stroke="black" d="M498.5,-1064C498.5,-1064 417.5,-1064 417.5,-1064 411.5,-1064 405.5,-1058 405.5,-1052 405.5,-1052 405.5,-1008 405.5,-1008 405.5,-1002 411.5,-996 417.5,-996 417.5,-996 498.5,-996 498.5,-996 504.5,-996 510.5,-1002 510.5,-1008 510.5,-1008 510.5,-1052 510.5,-1052 510.5,-1058 504.5,-1064 498.5,-1064"/>
<text text-anchor="middle" x="458" y="-1048.8" font-family="Times,serif" font-size="14.00">6</text>
<text text-anchor="middle" x="458" y="-1033.8" font-family="Times,serif" font-size="14.00">Type: NestLoop</text>
<text text-anchor="middle" x="458" y="-1018.8" font-family="Times,serif" font-size="14.00">Cost: 0..289018</text>
<text text-anchor="middle" x="458" y="-1003.8" font-family="Times,serif" font-size="14.00">Rows: 1000</text>
</g>
<!-- 0&#45;&gt;6 -->
<g id="edge14" class="edge">
<title>0&#45;&gt;6</title>
<path fill="none" stroke="black" d="M700.89,-1136.28C695.01,-1133.17 688.97,-1130.32 683,-1128 618.01,-1102.73 591.03,-1129.85 529,-1098 516.02,-1091.33 503.74,-1081.57 493.16,-1071.55"/>
<polygon fill="black" stroke="black" points="495.34,-1068.79 485.76,-1064.25 490.42,-1073.77 495.34,-1068.79"/>
</g>
<!-- 7 -->
<g id="node10" class="node">
<title>7</title>
<path fill="lightblue" stroke="black" d="M216,-1064C216,-1064 28,-1064 28,-1064 22,-1064 16,-1058 16,-1052 16,-1052 16,-1008 16,-1008 16,-1002 22,-996 28,-996 28,-996 216,-996 216,-996 222,-996 228,-1002 228,-1008 228,-1008 228,-1052 228,-1052 228,-1058 222,-1064 216,-1064"/>
<text text-anchor="middle" x="122" y="-1048.8" font-family="Times,serif" font-size="14.00">7</text>
<text text-anchor="middle" x="122" y="-1033.8" font-family="Times,serif" font-size="14.00">Type: NestLoop</text>
<text text-anchor="middle" x="122" y="-1018.8" font-family="Times,serif" font-size="14.00">Cost: 0.28500000000000003..526.5</text>
<text text-anchor="middle" x="122" y="-1003.8" font-family="Times,serif" font-size="14.00">Rows: 1000</text>
</g>
<!-- 0&#45;&gt;7 -->
<g id="edge24" class="edge">
<title>0&#45;&gt;7</title>
<path fill="none" stroke="black" d="M701.91,-1135.92C695.75,-1132.79 689.37,-1130.03 683,-1128 497.53,-1068.83 432.99,-1152.17 246,-1098 223.38,-1091.45 200.24,-1080.35 180.16,-1069.05"/>
<polygon fill="black" stroke="black" points="181.88,-1066 171.47,-1064.04 178.38,-1072.06 181.88,-1066"/>
</g>
<!-- 8 -->
<g id="node11" class="node">
<title>8</title>
<path fill="lightblue" stroke="black" d="M1815.5,-924C1815.5,-924 1546.5,-924 1546.5,-924 1540.5,-924 1534.5,-918 1534.5,-912 1534.5,-912 1534.5,-868 1534.5,-868 1534.5,-862 1540.5,-856 1546.5,-856 1546.5,-856 1815.5,-856 1815.5,-856 1821.5,-856 1827.5,-862 1827.5,-868 1827.5,-868 1827.5,-912 1827.5,-912 1827.5,-918 1821.5,-924 1815.5,-924"/>
<text text-anchor="middle" x="1681" y="-908.8" font-family="Times,serif" font-size="14.00">8</text>
<text text-anchor="middle" x="1681" y="-893.8" font-family="Times,serif" font-size="14.00">Type: NestLoop</text>
<text text-anchor="middle" x="1681" y="-878.8" font-family="Times,serif" font-size="14.00">Cost: 0.29500000000000004..541.4949999999999</text>
<text text-anchor="middle" x="1681" y="-863.8" font-family="Times,serif" font-size="14.00">Rows: 1000</text>
</g>
<!-- 0&#45;&gt;8 -->
<g id="edge10" class="edge">
<title>0&#45;&gt;8</title>
<path fill="none" stroke="black" d="M797.63,-1135.84C803.92,-1132.67 810.46,-1129.93 817,-1128 879.35,-1109.57 1941.62,-1144.56 1987,-1098 2021.12,-1062.99 2017.76,-1026 1987,-988 1946.68,-938.2 1907.25,-976.79 1846,-958 1818.75,-949.64 1789.74,-938.61 1763.75,-927.93"/>
<polygon fill="black" stroke="black" points="1764.91,-924.61 1754.33,-924.01 1762.22,-931.08 1764.91,-924.61"/>
</g>
<!-- 10 -->
<g id="node12" class="node">
<title>10</title>
<path fill="lightblue" stroke="black" d="M357.5,-1064C357.5,-1064 276.5,-1064 276.5,-1064 270.5,-1064 264.5,-1058 264.5,-1052 264.5,-1052 264.5,-1008 264.5,-1008 264.5,-1002 270.5,-996 276.5,-996 276.5,-996 357.5,-996 357.5,-996 363.5,-996 369.5,-1002 369.5,-1008 369.5,-1008 369.5,-1052 369.5,-1052 369.5,-1058 363.5,-1064 357.5,-1064"/>
<text text-anchor="middle" x="317" y="-1048.8" font-family="Times,serif" font-size="14.00">10</text>
<text text-anchor="middle" x="317" y="-1033.8" font-family="Times,serif" font-size="14.00">Type: NestLoop</text>
<text text-anchor="middle" x="317" y="-1018.8" font-family="Times,serif" font-size="14.00">Cost: 0..150207</text>
<text text-anchor="middle" x="317" y="-1003.8" font-family="Times,serif" font-size="14.00">Rows: 1000</text>
</g>
<!-- 0&#45;&gt;10 -->
<g id="edge6" class="edge">
<title>0&#45;&gt;10</title>
<path fill="none" stroke="black" d="M701.47,-1135.92C695.44,-1132.84 689.2,-1130.09 683,-1128 557.7,-1085.77 507.07,-1153.39 387,-1098 373.47,-1091.76 360.93,-1081.82 350.3,-1071.48"/>
<polygon fill="black" stroke="black" points="352.77,-1069 343.27,-1064.31 347.77,-1073.9 352.77,-1069"/>
</g>
<!-- 11 -->
<g id="node13" class="node">
<title>11</title>
<path fill="lightblue" stroke="black" d="M649,-1064C649,-1064 559,-1064 559,-1064 553,-1064 547,-1058 547,-1052 547,-1052 547,-1008 547,-1008 547,-1002 553,-996 559,-996 559,-996 649,-996 649,-996 655,-996 661,-1002 661,-1008 661,-1008 661,-1052 661,-1052 661,-1058 655,-1064 649,-1064"/>
<text text-anchor="middle" x="604" y="-1048.8" font-family="Times,serif" font-size="14.00">11</text>
<text text-anchor="middle" x="604" y="-1033.8" font-family="Times,serif" font-size="14.00">Type: HashJoin</text>
<text text-anchor="middle" x="604" y="-1018.8" font-family="Times,serif" font-size="14.00">Cost: 289..320.75</text>
<text text-anchor="middle" x="604" y="-1003.8" font-family="Times,serif" font-size="14.00">Rows: 1000</text>
</g>
<!-- 0&#45;&gt;11 -->
<g id="edge8" class="edge">
<title>0&#45;&gt;11</title>
<path fill="none" stroke="black" d="M715.03,-1135.95C694.43,-1116.47 668.22,-1091.7 646.44,-1071.11"/>
<polygon fill="black" stroke="black" points="648.61,-1068.35 638.94,-1064.02 643.8,-1073.44 648.61,-1068.35"/>
</g>
<!-- 12 -->
<g id="node14" class="node">
<title>12</title>
<path fill="lightcoral" stroke="black" d="M790.5,-1064C790.5,-1064 709.5,-1064 709.5,-1064 703.5,-1064 697.5,-1058 697.5,-1052 697.5,-1052 697.5,-1008 697.5,-1008 697.5,-1002 703.5,-996 709.5,-996 709.5,-996 790.5,-996 790.5,-996 796.5,-996 802.5,-1002 802.5,-1008 802.5,-1008 802.5,-1052 802.5,-1052 802.5,-1058 796.5,-1064 790.5,-1064"/>
<text text-anchor="middle" x="750" y="-1048.8" font-family="Times,serif" font-size="14.00">12</text>
<text text-anchor="middle" x="750" y="-1033.8" font-family="Times,serif" font-size="14.00">Type: NestLoop</text>
<text text-anchor="middle" x="750" y="-1018.8" font-family="Times,serif" font-size="14.00">Cost: 0..305164</text>
<text text-anchor="middle" x="750" y="-1003.8" font-family="Times,serif" font-size="14.00">Rows: 1000</text>
</g>
<!-- 0&#45;&gt;12 -->
<g id="edge2" class="edge">
<title>0&#45;&gt;12</title>
<path fill="none" stroke="black" d="M750,-1135.95C750,-1117.48 750,-1094.24 750,-1074.33"/>
<polygon fill="black" stroke="black" points="753.5,-1074.26 750,-1064.26 746.5,-1074.26 753.5,-1074.26"/>
</g>
<!-- 16 -->
<g id="node17" class="node">
<title>16</title>
<path fill="lightblue" stroke="black" d="M1568.5,-1064C1568.5,-1064 1305.5,-1064 1305.5,-1064 1299.5,-1064 1293.5,-1058 1293.5,-1052 1293.5,-1052 1293.5,-1008 1293.5,-1008 1293.5,-1002 1299.5,-996 1305.5,-996 1305.5,-996 1568.5,-996 1568.5,-996 1574.5,-996 1580.5,-1002 1580.5,-1008 1580.5,-1008 1580.5,-1052 1580.5,-1052 1580.5,-1058 1574.5,-1064 1568.5,-1064"/>
<text text-anchor="middle" x="1437" y="-1048.8" font-family="Times,serif" font-size="14.00">16</text>
<text text-anchor="middle" x="1437" y="-1033.8" font-family="Times,serif" font-size="14.00">Type: MergeJoin</text>
<text text-anchor="middle" x="1437" y="-1018.8" font-family="Times,serif" font-size="14.00">Cost: 68.11392142331046..114.81392142331046</text>
<text text-anchor="middle" x="1437" y="-1003.8" font-family="Times,serif" font-size="14.00">Rows: 1000</text>
</g>
<!-- 0&#45;&gt;16 -->
<g id="edge9" class="edge">
<title>0&#45;&gt;16</title>
<path fill="none" stroke="black" d="M798.08,-1135.9C804.25,-1132.77 810.63,-1130.02 817,-1128 1011.44,-1066.3 1076.32,-1144.26 1275,-1098 1304.17,-1091.21 1334.85,-1079.74 1361.57,-1068.19"/>
<polygon fill="black" stroke="black" points="1363.1,-1071.34 1370.84,-1064.11 1360.28,-1064.93 1363.1,-1071.34"/>
</g>
<!-- 17 -->
<g id="node18" class="node">
<title>17</title>
<path fill="lightblue" stroke="black" d="M1245,-1064C1245,-1064 1167,-1064 1167,-1064 1161,-1064 1155,-1058 1155,-1052 1155,-1052 1155,-1008 1155,-1008 1155,-1002 1161,-996 1167,-996 1167,-996 1245,-996 1245,-996 1251,-996 1257,-1002 1257,-1008 1257,-1008 1257,-1052 1257,-1052 1257,-1058 1251,-1064 1245,-1064"/>
<text text-anchor="middle" x="1206" y="-1048.8" font-family="Times,serif" font-size="14.00">17</text>
<text text-anchor="middle" x="1206" y="-1033.8" font-family="Times,serif" font-size="14.00">Type: HashJoin</text>
<text text-anchor="middle" x="1206" y="-1018.8" font-family="Times,serif" font-size="14.00">Cost: 30.5..242</text>
<text text-anchor="middle" x="1206" y="-1003.8" font-family="Times,serif" font-size="14.00">Rows: 1000</text>
</g>
<!-- 0&#45;&gt;17 -->
<g id="edge39" class="edge">
<title>0&#45;&gt;17</title>
<path fill="none" stroke="black" d="M798.52,-1135.88C804.55,-1132.8 810.79,-1130.07 817,-1128 952.54,-1082.89 1007.28,-1157.82 1137,-1098 1150.55,-1091.75 1163.05,-1081.7 1173.58,-1071.26"/>
<polygon fill="black" stroke="black" points="1176.14,-1073.65 1180.55,-1064.01 1171.09,-1068.8 1176.14,-1073.65"/>
</g>
<!-- 14 -->
<g id="node2" class="node">
<title>14</title>
<path fill="lightblue" stroke="black" d="M1958,-1064C1958,-1064 1884,-1064 1884,-1064 1878,-1064 1872,-1058 1872,-1052 1872,-1052 1872,-1008 1872,-1008 1872,-1002 1878,-996 1884,-996 1884,-996 1958,-996 1958,-996 1964,-996 1970,-1002 1970,-1008 1970,-1008 1970,-1052 1970,-1052 1970,-1058 1964,-1064 1958,-1064"/>
<text text-anchor="middle" x="1921" y="-1048.8" font-family="Times,serif" font-size="14.00">14</text>
<text text-anchor="middle" x="1921" y="-1033.8" font-family="Times,serif" font-size="14.00">Type: Material</text>
<text text-anchor="middle" x="1921" y="-1018.8" font-family="Times,serif" font-size="14.00">Cost: 0..23</text>
<text text-anchor="middle" x="1921" y="-1003.8" font-family="Times,serif" font-size="14.00">Rows: 1000</text>
</g>
<!-- 13 -->
<g id="node15" class="node">
<title>13</title>
<path fill="lightblue" stroke="black" d="M1966,-924C1966,-924 1876,-924 1876,-924 1870,-924 1864,-918 1864,-912 1864,-912 1864,-868 1864,-868 1864,-862 1870,-856 1876,-856 1876,-856 1966,-856 1966,-856 1972,-856 1978,-862 1978,-868 1978,-868 1978,-912 1978,-912 1978,-918 1972,-924 1966,-924"/>
<text text-anchor="middle" x="1921" y="-908.8" font-family="Times,serif" font-size="14.00">13</text>
<text text-anchor="middle" x="1921" y="-893.8" font-family="Times,serif" font-size="14.00">Type: NestLoop</text>
<text text-anchor="middle" x="1921" y="-878.8" font-family="Times,serif" font-size="14.00">Cost: 0..150184.5</text>
<text text-anchor="middle" x="1921" y="-863.8" font-family="Times,serif" font-size="14.00">Rows: 1000</text>
</g>
<!-- 14&#45;&gt;13 -->
<g id="edge17" class="edge">
<title>14&#45;&gt;13</title>
<path fill="none" stroke="black" d="M1921,-995.95C1921,-977.48 1921,-954.24 1921,-934.33"/>
<polygon fill="black" stroke="black" points="1924.5,-934.26 1921,-924.26 1917.5,-934.26 1924.5,-934.26"/>
</g>
<!-- 15 -->
<g id="node16" class="node">
<title>15</title>
<path fill="lightcoral" stroke="black" d="M2248,-924C2248,-924 2026,-924 2026,-924 2020,-924 2014,-918 2014,-912 2014,-912 2014,-868 2014,-868 2014,-862 2020,-856 2026,-856 2026,-856 2248,-856 2248,-856 2254,-856 2260,-862 2260,-868 2260,-868 2260,-912 2260,-912 2260,-918 2254,-924 2248,-924"/>
<text text-anchor="middle" x="2137" y="-908.8" font-family="Times,serif" font-size="14.00">15</text>
<text text-anchor="middle" x="2137" y="-893.8" font-family="Times,serif" font-size="14.00">Type: NestLoop</text>
<text text-anchor="middle" x="2137" y="-878.8" font-family="Times,serif" font-size="14.00">Cost: 0.28500000000000003..150312.785</text>
<text text-anchor="middle" x="2137" y="-863.8" font-family="Times,serif" font-size="14.00">Rows: 1000</text>
</g>
<!-- 14&#45;&gt;15 -->
<g id="edge36" class="edge">
<title>14&#45;&gt;15</title>
<path fill="none" stroke="black" d="M1970.01,-997.69C2001.55,-977.54 2042.76,-951.21 2076.36,-929.74"/>
<polygon fill="black" stroke="black" points="2078.63,-932.45 2085.17,-924.11 2074.86,-926.55 2078.63,-932.45"/>
</g>
<!-- 1 -->
<g id="node3" class="node">
<title>1</title>
<path fill="lightblue" stroke="black" d="M921,-1204C921,-1204 847,-1204 847,-1204 841,-1204 835,-1198 835,-1192 835,-1192 835,-1148 835,-1148 835,-1142 841,-1136 847,-1136 847,-1136 921,-1136 921,-1136 927,-1136 933,-1142 933,-1148 933,-1148 933,-1192 933,-1192 933,-1198 927,-1204 921,-1204"/>
<text text-anchor="middle" x="884" y="-1188.8" font-family="Times,serif" font-size="14.00">1</text>
<text text-anchor="middle" x="884" y="-1173.8" font-family="Times,serif" font-size="14.00">Type: SeqScan</text>
<text text-anchor="middle" x="884" y="-1158.8" font-family="Times,serif" font-size="14.00">Cost: 0..164</text>
<text text-anchor="middle" x="884" y="-1143.8" font-family="Times,serif" font-size="14.00">Rows: 10000</text>
</g>
<!-- 1&#45;&gt;5 -->
<g id="edge16" class="edge">
<title>1&#45;&gt;5</title>
<path fill="none" stroke="black" d="M906.75,-1135.95C919.82,-1116.97 936.35,-1092.96 950.3,-1072.69"/>
<polygon fill="black" stroke="black" points="953.31,-1074.48 956.1,-1064.26 947.55,-1070.52 953.31,-1074.48"/>
</g>
<!-- 1&#45;&gt;6 -->
<g id="edge28" class="edge">
<title>1&#45;&gt;6</title>
<path fill="none" stroke="black" d="M835.46,-1135.94C829.43,-1132.85 823.2,-1130.1 817,-1128 695.11,-1086.73 645.97,-1151.66 529,-1098 515.36,-1091.74 502.66,-1081.79 491.88,-1071.46"/>
<polygon fill="black" stroke="black" points="494.27,-1068.9 484.74,-1064.28 489.31,-1073.84 494.27,-1068.9"/>
</g>
<!-- 1&#45;&gt;11 -->
<g id="edge32" class="edge">
<title>1&#45;&gt;11</title>
<path fill="none" stroke="black" d="M834.84,-1136.41C828.97,-1133.28 822.95,-1130.39 817,-1128 758.75,-1104.63 734.91,-1126.51 679,-1098 665.48,-1091.1 652.49,-1081.16 641.23,-1071.04"/>
<polygon fill="black" stroke="black" points="643.43,-1068.31 633.73,-1064.04 638.66,-1073.43 643.43,-1068.31"/>
</g>
<!-- 1&#45;&gt;12 -->
<g id="edge31" class="edge">
<title>1&#45;&gt;12</title>
<path fill="none" stroke="black" d="M851.9,-1135.95C833.15,-1116.63 809.33,-1092.1 789.43,-1071.61"/>
<polygon fill="black" stroke="black" points="791.78,-1069 782.3,-1064.26 786.75,-1073.88 791.78,-1069"/>
</g>
<!-- 1&#45;&gt;13 -->
<g id="edge33" class="edge">
<title>1&#45;&gt;13</title>
<path fill="none" stroke="black" d="M931.63,-1135.85C937.92,-1132.69 944.46,-1129.94 951,-1128 1008.33,-1110.98 1985.31,-1140.87 2027,-1098 2061.08,-1062.95 2046.7,-1032.74 2027,-988 2026.11,-985.99 1994.09,-956.8 1965.47,-930.97"/>
<polygon fill="black" stroke="black" points="1967.68,-928.24 1957.91,-924.15 1962.99,-933.44 1967.68,-928.24"/>
</g>
<!-- 1&#45;&gt;17 -->
<g id="edge11" class="edge">
<title>1&#45;&gt;17</title>
<path fill="none" stroke="black" d="M933.04,-1136.09C938.93,-1133.02 944.99,-1130.23 951,-1128 1029.53,-1098.93 1062.17,-1135.57 1137,-1098 1149.97,-1091.49 1162.08,-1081.68 1172.43,-1071.56"/>
<polygon fill="black" stroke="black" points="1175.16,-1073.77 1179.64,-1064.17 1170.15,-1068.88 1175.16,-1073.77"/>
</g>
<!-- 2 -->
<g id="node4" class="node">
<title>2</title>
<path fill="lightblue" stroke="black" d="M1183,-1204C1183,-1204 981,-1204 981,-1204 975,-1204 969,-1198 969,-1192 969,-1192 969,-1148 969,-1148 969,-1142 975,-1136 981,-1136 981,-1136 1183,-1136 1183,-1136 1189,-1136 1195,-1142 1195,-1148 1195,-1148 1195,-1192 1195,-1192 1195,-1198 1189,-1204 1183,-1204"/>
<text text-anchor="middle" x="1082" y="-1188.8" font-family="Times,serif" font-size="14.00">2</text>
<text text-anchor="middle" x="1082" y="-1173.8" font-family="Times,serif" font-size="14.00">Type: IndexOnlyScan</text>
<text text-anchor="middle" x="1082" y="-1158.8" font-family="Times,serif" font-size="14.00">Cost: 0.28500000000000003..292.285</text>
<text text-anchor="middle" x="1082" y="-1143.8" font-family="Times,serif" font-size="14.00">Rows: 10000</text>
</g>
<!-- 2&#45;&gt;15 -->
<g id="edge53" class="edge">
<title>2&#45;&gt;15</title>
<path fill="none" stroke="black" d="M1195.07,-1167.73C1438.83,-1164.02 1997.32,-1149.89 2065,-1098 2115.5,-1059.29 2130.74,-982.82 2135.25,-934.44"/>
<polygon fill="black" stroke="black" points="2138.75,-934.53 2136.07,-924.27 2131.78,-933.96 2138.75,-934.53"/>
</g>
<!-- 2&#45;&gt;16 -->
<g id="edge37" class="edge">
<title>2&#45;&gt;16</title>
<path fill="none" stroke="black" d="M1174.07,-1135.97C1206.12,-1124.25 1242.24,-1110.79 1275,-1098 1299.28,-1088.52 1325.44,-1077.88 1349.51,-1067.93"/>
<polygon fill="black" stroke="black" points="1351.08,-1071.07 1358.97,-1064 1348.4,-1064.6 1351.08,-1071.07"/>
</g>
<!-- 3 -->
<g id="node5" class="node">
<title>3</title>
<path fill="lightblue" stroke="black" d="M390.5,-1204C390.5,-1204 195.5,-1204 195.5,-1204 189.5,-1204 183.5,-1198 183.5,-1192 183.5,-1192 183.5,-1148 183.5,-1148 183.5,-1142 189.5,-1136 195.5,-1136 195.5,-1136 390.5,-1136 390.5,-1136 396.5,-1136 402.5,-1142 402.5,-1148 402.5,-1148 402.5,-1192 402.5,-1192 402.5,-1198 396.5,-1204 390.5,-1204"/>
<text text-anchor="middle" x="293" y="-1188.8" font-family="Times,serif" font-size="14.00">3</text>
<text text-anchor="middle" x="293" y="-1173.8" font-family="Times,serif" font-size="14.00">Type: IndexOnlyScan</text>
<text text-anchor="middle" x="293" y="-1158.8" font-family="Times,serif" font-size="14.00">Cost: 0.28500000000000003..0.4985</text>
<text text-anchor="middle" x="293" y="-1143.8" font-family="Times,serif" font-size="14.00">Rows: 1</text>
</g>
<!-- 3&#45;&gt;7 -->
<g id="edge27" class="edge">
<title>3&#45;&gt;7</title>
<path fill="none" stroke="black" d="M252.04,-1135.95C227.6,-1116.22 196.41,-1091.05 170.71,-1070.31"/>
<polygon fill="black" stroke="black" points="172.9,-1067.58 162.92,-1064.02 168.5,-1073.03 172.9,-1067.58"/>
</g>
<!-- 4 -->
<g id="node6" class="node">
<title>4</title>
<path fill="lightcoral" stroke="black" d="M653,-1204C653,-1204 451,-1204 451,-1204 445,-1204 439,-1198 439,-1192 439,-1192 439,-1148 439,-1148 439,-1142 445,-1136 451,-1136 451,-1136 653,-1136 653,-1136 659,-1136 665,-1142 665,-1148 665,-1148 665,-1192 665,-1192 665,-1198 659,-1204 653,-1204"/>
<text text-anchor="middle" x="552" y="-1188.8" font-family="Times,serif" font-size="14.00">4</text>
<text text-anchor="middle" x="552" y="-1173.8" font-family="Times,serif" font-size="14.00">Type: BitmapHeapScan</text>
<text text-anchor="middle" x="552" y="-1158.8" font-family="Times,serif" font-size="14.00">Cost: 0.41274999999999995..4.42525</text>
<text text-anchor="middle" x="552" y="-1143.8" font-family="Times,serif" font-size="14.00">Rows: 1</text>
</g>
<!-- 4&#45;&gt;10 -->
<g id="edge49" class="edge">
<title>4&#45;&gt;10</title>
<path fill="none" stroke="black" d="M459.07,-1135.88C434.72,-1125.38 409.1,-1112.64 387,-1098 375.6,-1090.45 364.38,-1080.94 354.38,-1071.48"/>
<polygon fill="black" stroke="black" points="356.59,-1068.75 346.99,-1064.28 351.71,-1073.76 356.59,-1068.75"/>
</g>
<!-- 9 -->
<g id="node7" class="node">
<title>9</title>
<path fill="lightblue" stroke="black" d="M1823.5,-1064C1823.5,-1064 1628.5,-1064 1628.5,-1064 1622.5,-1064 1616.5,-1058 1616.5,-1052 1616.5,-1052 1616.5,-1008 1616.5,-1008 1616.5,-1002 1622.5,-996 1628.5,-996 1628.5,-996 1823.5,-996 1823.5,-996 1829.5,-996 1835.5,-1002 1835.5,-1008 1835.5,-1008 1835.5,-1052 1835.5,-1052 1835.5,-1058 1829.5,-1064 1823.5,-1064"/>
<text text-anchor="middle" x="1726" y="-1048.8" font-family="Times,serif" font-size="14.00">9</text>
<text text-anchor="middle" x="1726" y="-1033.8" font-family="Times,serif" font-size="14.00">Type: Memoize</text>
<text text-anchor="middle" x="1726" y="-1018.8" font-family="Times,serif" font-size="14.00">Cost: 0.29500000000000004..0.5085</text>
<text text-anchor="middle" x="1726" y="-1003.8" font-family="Times,serif" font-size="14.00">Rows: 1</text>
</g>
<!-- 9&#45;&gt;8 -->
<g id="edge52" class="edge">
<title>9&#45;&gt;8</title>
<path fill="none" stroke="black" d="M1715.22,-995.95C1709.14,-977.31 1701.48,-953.81 1694.95,-933.78"/>
<polygon fill="black" stroke="black" points="1698.27,-932.69 1691.85,-924.26 1691.62,-934.86 1698.27,-932.69"/>
</g>
<!-- 20 -->
<g id="node19" class="node">
<title>20</title>
<path fill="lightblue" stroke="black" d="M1335.5,-924C1335.5,-924 1258.5,-924 1258.5,-924 1252.5,-924 1246.5,-918 1246.5,-912 1246.5,-912 1246.5,-868 1246.5,-868 1246.5,-862 1252.5,-856 1258.5,-856 1258.5,-856 1335.5,-856 1335.5,-856 1341.5,-856 1347.5,-862 1347.5,-868 1347.5,-868 1347.5,-912 1347.5,-912 1347.5,-918 1341.5,-924 1335.5,-924"/>
<text text-anchor="middle" x="1297" y="-908.8" font-family="Times,serif" font-size="14.00">20</text>
<text text-anchor="middle" x="1297" y="-893.8" font-family="Times,serif" font-size="14.00">Type: Result</text>
<text text-anchor="middle" x="1297" y="-878.8" font-family="Times,serif" font-size="14.00">Cost: 30.5..242</text>
<text text-anchor="middle" x="1297" y="-863.8" font-family="Times,serif" font-size="14.00">Rows: 1000</text>
</g>
<!-- 6&#45;&gt;20 -->
<g id="edge25" class="edge">
<title>6&#45;&gt;20</title>
<path fill="none" stroke="black" d="M508.66,-995.95C515.29,-992.77 522.17,-989.99 529,-988 678.28,-944.54 1085.21,-1019.52 1228,-958 1241.83,-952.04 1254.48,-941.97 1265.06,-931.41"/>
<polygon fill="black" stroke="black" points="1267.69,-933.73 1272.05,-924.08 1262.62,-928.9 1267.69,-933.73"/>
</g>
<!-- 22 -->
<g id="node20" class="node">
<title>22</title>
<path fill="lightblue" stroke="black" d="M1198,-924C1198,-924 1010,-924 1010,-924 1004,-924 998,-918 998,-912 998,-912 998,-868 998,-868 998,-862 1004,-856 1010,-856 1010,-856 1198,-856 1198,-856 1204,-856 1210,-862 1210,-868 1210,-868 1210,-912 1210,-912 1210,-918 1204,-924 1198,-924"/>
<text text-anchor="middle" x="1104" y="-908.8" font-family="Times,serif" font-size="14.00">22</text>
<text text-anchor="middle" x="1104" y="-893.8" font-family="Times,serif" font-size="14.00">Type: Result</text>
<text text-anchor="middle" x="1104" y="-878.8" font-family="Times,serif" font-size="14.00">Cost: 0.28500000000000003..526.5</text>
<text text-anchor="middle" x="1104" y="-863.8" font-family="Times,serif" font-size="14.00">Rows: 1000</text>
</g>
<!-- 7&#45;&gt;22 -->
<g id="edge34" class="edge">
<title>7&#45;&gt;22</title>
<path fill="none" stroke="black" d="M215.2,-995.91C225.51,-992.93 235.92,-990.21 246,-988 507.39,-930.66 821.44,-906.12 987.6,-896.52"/>
<polygon fill="black" stroke="black" points="988.06,-900 997.85,-895.94 987.66,-893.01 988.06,-900"/>
</g>
<!-- 18 -->
<g id="node22" class="node">
<title>18</title>
<path fill="lightblue" stroke="black" d="M1810,-784C1810,-784 1554,-784 1554,-784 1548,-784 1542,-778 1542,-772 1542,-772 1542,-728 1542,-728 1542,-722 1548,-716 1554,-716 1554,-716 1810,-716 1810,-716 1816,-716 1822,-722 1822,-728 1822,-728 1822,-772 1822,-772 1822,-778 1816,-784 1810,-784"/>
<text text-anchor="middle" x="1682" y="-768.8" font-family="Times,serif" font-size="14.00">18</text>
<text text-anchor="middle" x="1682" y="-753.8" font-family="Times,serif" font-size="14.00">Type: Limit</text>
<text text-anchor="middle" x="1682" y="-738.8" font-family="Times,serif" font-size="14.00">Cost: 68.11392142331046..68.58092142331046</text>
<text text-anchor="middle" x="1682" y="-723.8" font-family="Times,serif" font-size="14.00">Rows: 10</text>
</g>
<!-- 8&#45;&gt;18 -->
<g id="edge54" class="edge">
<title>8&#45;&gt;18</title>
<path fill="none" stroke="black" d="M1681.24,-855.95C1681.37,-837.48 1681.54,-814.24 1681.69,-794.33"/>
<polygon fill="black" stroke="black" points="1685.19,-794.29 1681.76,-784.26 1678.19,-794.24 1685.19,-794.29"/>
</g>
<!-- 24 -->
<g id="node21" class="node">
<title>24</title>
<path fill="lightblue" stroke="black" d="M1486,-924C1486,-924 1396,-924 1396,-924 1390,-924 1384,-918 1384,-912 1384,-912 1384,-868 1384,-868 1384,-862 1390,-856 1396,-856 1396,-856 1486,-856 1486,-856 1492,-856 1498,-862 1498,-868 1498,-868 1498,-912 1498,-912 1498,-918 1492,-924 1486,-924"/>
<text text-anchor="middle" x="1441" y="-908.8" font-family="Times,serif" font-size="14.00">24</text>
<text text-anchor="middle" x="1441" y="-893.8" font-family="Times,serif" font-size="14.00">Type: Result</text>
<text text-anchor="middle" x="1441" y="-878.8" font-family="Times,serif" font-size="14.00">Cost: 0..150184.5</text>
<text text-anchor="middle" x="1441" y="-863.8" font-family="Times,serif" font-size="14.00">Rows: 1000</text>
</g>
<!-- 12&#45;&gt;24 -->
<g id="edge22" class="edge">
<title>12&#45;&gt;24</title>
<path fill="none" stroke="black" d="M801.08,-995.84C807.59,-992.72 814.32,-989.99 821,-988 937.04,-953.45 1252.96,-1003.9 1365,-958 1379.82,-951.93 1393.71,-941.7 1405.46,-931.04"/>
<polygon fill="black" stroke="black" points="1408.02,-933.44 1412.86,-924.01 1403.2,-928.36 1408.02,-933.44"/>
</g>
<!-- 19 -->
<g id="node23" class="node">
<title>19</title>
<path fill="lightblue" stroke="black" d="M1344,-784C1344,-784 1250,-784 1250,-784 1244,-784 1238,-778 1238,-772 1238,-772 1238,-728 1238,-728 1238,-722 1244,-716 1250,-716 1250,-716 1344,-716 1344,-716 1350,-716 1356,-722 1356,-728 1356,-728 1356,-772 1356,-772 1356,-778 1350,-784 1344,-784"/>
<text text-anchor="middle" x="1297" y="-768.8" font-family="Times,serif" font-size="14.00">19</text>
<text text-anchor="middle" x="1297" y="-753.8" font-family="Times,serif" font-size="14.00">Type: Limit</text>
<text text-anchor="middle" x="1297" y="-738.8" font-family="Times,serif" font-size="14.00">Cost: 30.5..32.615</text>
<text text-anchor="middle" x="1297" y="-723.8" font-family="Times,serif" font-size="14.00">Rows: 10</text>
</g>
<!-- 20&#45;&gt;19 -->
<g id="edge41" class="edge">
<title>20&#45;&gt;19</title>
<path fill="none" stroke="black" d="M1297,-855.95C1297,-837.48 1297,-814.24 1297,-794.33"/>
<polygon fill="black" stroke="black" points="1300.5,-794.26 1297,-784.26 1293.5,-794.26 1300.5,-794.26"/>
</g>
<!-- 21 -->
<g id="node24" class="node">
<title>21</title>
<path fill="lightblue" stroke="black" d="M1190,-784C1190,-784 988,-784 988,-784 982,-784 976,-778 976,-772 976,-772 976,-728 976,-728 976,-722 982,-716 988,-716 988,-716 1190,-716 1190,-716 1196,-716 1202,-722 1202,-728 1202,-728 1202,-772 1202,-772 1202,-778 1196,-784 1190,-784"/>
<text text-anchor="middle" x="1089" y="-768.8" font-family="Times,serif" font-size="14.00">21</text>
<text text-anchor="middle" x="1089" y="-753.8" font-family="Times,serif" font-size="14.00">Type: Limit</text>
<text text-anchor="middle" x="1089" y="-738.8" font-family="Times,serif" font-size="14.00">Cost: 0.28500000000000003..5.54715</text>
<text text-anchor="middle" x="1089" y="-723.8" font-family="Times,serif" font-size="14.00">Rows: 10</text>
</g>
<!-- 22&#45;&gt;21 -->
<g id="edge50" class="edge">
<title>22&#45;&gt;21</title>
<path fill="none" stroke="black" d="M1100.41,-855.95C1098.4,-837.48 1095.87,-814.24 1093.71,-794.33"/>
<polygon fill="black" stroke="black" points="1097.18,-793.83 1092.62,-784.26 1090.22,-794.58 1097.18,-793.83"/>
</g>
<!-- 23 -->
<g id="node25" class="node">
<title>23</title>
<path fill="lightblue" stroke="black" d="M1494,-784C1494,-784 1404,-784 1404,-784 1398,-784 1392,-778 1392,-772 1392,-772 1392,-728 1392,-728 1392,-722 1398,-716 1404,-716 1404,-716 1494,-716 1494,-716 1500,-716 1506,-722 1506,-728 1506,-728 1506,-772 1506,-772 1506,-778 1500,-784 1494,-784"/>
<text text-anchor="middle" x="1449" y="-768.8" font-family="Times,serif" font-size="14.00">23</text>
<text text-anchor="middle" x="1449" y="-753.8" font-family="Times,serif" font-size="14.00">Type: Limit</text>
<text text-anchor="middle" x="1449" y="-738.8" font-family="Times,serif" font-size="14.00">Cost: 0..1501.845</text>
<text text-anchor="middle" x="1449" y="-723.8" font-family="Times,serif" font-size="14.00">Rows: 10</text>
</g>
<!-- 24&#45;&gt;23 -->
<g id="edge23" class="edge">
<title>24&#45;&gt;23</title>
<path fill="none" stroke="black" d="M1442.92,-855.95C1443.99,-837.48 1445.33,-814.24 1446.49,-794.33"/>
<polygon fill="black" stroke="black" points="1449.99,-794.45 1447.07,-784.26 1443,-794.04 1449.99,-794.45"/>
</g>
<!-- 25 -->
<g id="node26" class="node">
<title>25</title>
<path fill="lightblue" stroke="black" d="M1435,-644C1435,-644 1233,-644 1233,-644 1227,-644 1221,-638 1221,-632 1221,-632 1221,-588 1221,-588 1221,-582 1227,-576 1233,-576 1233,-576 1435,-576 1435,-576 1441,-576 1447,-582 1447,-588 1447,-588 1447,-632 1447,-632 1447,-638 1441,-644 1435,-644"/>
<text text-anchor="middle" x="1334" y="-628.8" font-family="Times,serif" font-size="14.00">25</text>
<text text-anchor="middle" x="1334" y="-613.8" font-family="Times,serif" font-size="14.00">Type: SubqueryScan</text>
<text text-anchor="middle" x="1334" y="-598.8" font-family="Times,serif" font-size="14.00">Cost: 0.28500000000000003..5.54715</text>
<text text-anchor="middle" x="1334" y="-583.8" font-family="Times,serif" font-size="14.00">Rows: 10</text>
</g>
<!-- 18&#45;&gt;25 -->
<g id="edge45" class="edge">
<title>18&#45;&gt;25</title>
<path fill="none" stroke="black" d="M1569.83,-715.99C1535.75,-704.98 1498.48,-691.94 1465,-678 1444.34,-669.4 1422.49,-658.84 1402.67,-648.67"/>
<polygon fill="black" stroke="black" points="1404.21,-645.53 1393.72,-644.04 1400.99,-651.74 1404.21,-645.53"/>
</g>
<!-- 26 -->
<g id="node27" class="node">
<title>26</title>
<path fill="lightblue" stroke="black" d="M1601,-644C1601,-644 1495,-644 1495,-644 1489,-644 1483,-638 1483,-632 1483,-632 1483,-588 1483,-588 1483,-582 1489,-576 1495,-576 1495,-576 1601,-576 1601,-576 1607,-576 1613,-582 1613,-588 1613,-588 1613,-632 1613,-632 1613,-638 1607,-644 1601,-644"/>
<text text-anchor="middle" x="1548" y="-628.8" font-family="Times,serif" font-size="14.00">26</text>
<text text-anchor="middle" x="1548" y="-613.8" font-family="Times,serif" font-size="14.00">Type: SubqueryScan</text>
<text text-anchor="middle" x="1548" y="-598.8" font-family="Times,serif" font-size="14.00">Cost: 0..1501.845</text>
<text text-anchor="middle" x="1548" y="-583.8" font-family="Times,serif" font-size="14.00">Rows: 10</text>
</g>
<!-- 19&#45;&gt;26 -->
<g id="edge20" class="edge">
<title>19&#45;&gt;26</title>
<path fill="none" stroke="black" d="M1356.2,-716.19C1362.15,-713.28 1368.15,-710.5 1374,-708 1413.16,-691.26 1427.6,-698.37 1465,-678 1478.87,-670.44 1492.72,-660.48 1505.01,-650.56"/>
<polygon fill="black" stroke="black" points="1507.38,-653.14 1512.85,-644.07 1502.92,-647.75 1507.38,-653.14"/>
</g>
<!-- 31 -->
<g id="node28" class="node">
<title>31</title>
<path fill="lightblue" stroke="black" d="M911,-504C911,-504 709,-504 709,-504 703,-504 697,-498 697,-492 697,-492 697,-448 697,-448 697,-442 703,-436 709,-436 709,-436 911,-436 911,-436 917,-436 923,-442 923,-448 923,-448 923,-492 923,-492 923,-498 917,-504 911,-504"/>
<text text-anchor="middle" x="810" y="-488.8" font-family="Times,serif" font-size="14.00">31</text>
<text text-anchor="middle" x="810" y="-473.8" font-family="Times,serif" font-size="14.00">Type: Material</text>
<text text-anchor="middle" x="810" y="-458.8" font-family="Times,serif" font-size="14.00">Cost: 0.28500000000000003..5.59715</text>
<text text-anchor="middle" x="810" y="-443.8" font-family="Times,serif" font-size="14.00">Rows: 10</text>
</g>
<!-- 25&#45;&gt;31 -->
<g id="edge18" class="edge">
<title>25&#45;&gt;31</title>
<path fill="none" stroke="black" d="M1220.84,-597.5C1141.1,-587.25 1032.63,-568.95 941,-538 918.65,-530.45 895.38,-519.63 874.77,-508.88"/>
<polygon fill="black" stroke="black" points="876.27,-505.72 865.8,-504.13 872.99,-511.9 876.27,-505.72"/>
</g>
<!-- 28 -->
<g id="node31" class="node">
<title>28</title>
<path fill="lightblue" stroke="black" d="M898.5,-364C898.5,-364 629.5,-364 629.5,-364 623.5,-364 617.5,-358 617.5,-352 617.5,-352 617.5,-308 617.5,-308 617.5,-302 623.5,-296 629.5,-296 629.5,-296 898.5,-296 898.5,-296 904.5,-296 910.5,-302 910.5,-308 910.5,-308 910.5,-352 910.5,-352 910.5,-358 904.5,-364 898.5,-364"/>
<text text-anchor="middle" x="764" y="-348.8" font-family="Times,serif" font-size="14.00">28</text>
<text text-anchor="middle" x="764" y="-333.8" font-family="Times,serif" font-size="14.00">Type: MergeJoin</text>
<text text-anchor="middle" x="764" y="-318.8" font-family="Times,serif" font-size="14.00">Cost: 11.035174499631733..11.685174499631733</text>
<text text-anchor="middle" x="764" y="-303.8" font-family="Times,serif" font-size="14.00">Rows: 10</text>
</g>
<!-- 25&#45;&gt;28 -->
<g id="edge40" class="edge">
<title>25&#45;&gt;28</title>
<path fill="none" stroke="black" d="M1261.7,-575.92C1243.25,-565.42 1224.32,-552.67 1209,-538 1167.31,-498.09 1188.4,-459.43 1140,-428 1060.56,-376.42 1020.45,-422.67 929,-398 900.56,-390.33 870.44,-379.09 843.82,-368"/>
<polygon fill="black" stroke="black" points="845.14,-364.75 834.57,-364.09 842.42,-371.2 845.14,-364.75"/>
</g>
<!-- 29 -->
<g id="node32" class="node">
<title>29</title>
<path fill="lightblue" stroke="black" d="M1161,-364C1161,-364 959,-364 959,-364 953,-364 947,-358 947,-352 947,-352 947,-308 947,-308 947,-302 953,-296 959,-296 959,-296 1161,-296 1161,-296 1167,-296 1173,-302 1173,-308 1173,-308 1173,-352 1173,-352 1173,-358 1167,-364 1161,-364"/>
<text text-anchor="middle" x="1060" y="-348.8" font-family="Times,serif" font-size="14.00">29</text>
<text text-anchor="middle" x="1060" y="-333.8" font-family="Times,serif" font-size="14.00">Type: NestLoop</text>
<text text-anchor="middle" x="1060" y="-318.8" font-family="Times,serif" font-size="14.00">Cost: 0.28500000000000003..569.215</text>
<text text-anchor="middle" x="1060" y="-303.8" font-family="Times,serif" font-size="14.00">Rows: 10</text>
</g>
<!-- 25&#45;&gt;29 -->
<g id="edge26" class="edge">
<title>25&#45;&gt;29</title>
<path fill="none" stroke="black" d="M1314.28,-575.74C1286.92,-530.24 1238.07,-451.51 1214,-428 1190.85,-405.38 1161.57,-385.34 1134.78,-369.43"/>
<polygon fill="black" stroke="black" points="1136.2,-366.2 1125.8,-364.19 1132.67,-372.25 1136.2,-366.2"/>
</g>
<!-- 32 -->
<g id="node34" class="node">
<title>32</title>
<path fill="lightblue" stroke="black" d="M1342.5,-364C1342.5,-364 1221.5,-364 1221.5,-364 1215.5,-364 1209.5,-358 1209.5,-352 1209.5,-352 1209.5,-308 1209.5,-308 1209.5,-302 1215.5,-296 1221.5,-296 1221.5,-296 1342.5,-296 1342.5,-296 1348.5,-296 1354.5,-302 1354.5,-308 1354.5,-308 1354.5,-352 1354.5,-352 1354.5,-358 1348.5,-364 1342.5,-364"/>
<text text-anchor="middle" x="1282" y="-348.8" font-family="Times,serif" font-size="14.00">32</text>
<text text-anchor="middle" x="1282" y="-333.8" font-family="Times,serif" font-size="14.00">Type: HashJoin</text>
<text text-anchor="middle" x="1282" y="-318.8" font-family="Times,serif" font-size="14.00">Cost: 5.67215..8.14715</text>
<text text-anchor="middle" x="1282" y="-303.8" font-family="Times,serif" font-size="14.00">Rows: 10</text>
</g>
<!-- 25&#45;&gt;32 -->
<g id="edge29" class="edge">
<title>25&#45;&gt;32</title>
<path fill="none" stroke="black" d="M1327.78,-575.74C1318.36,-525.41 1300.49,-429.86 1290.08,-374.2"/>
<polygon fill="black" stroke="black" points="1293.51,-373.48 1288.23,-364.3 1286.63,-374.77 1293.51,-373.48"/>
</g>
<!-- 33 -->
<g id="node35" class="node">
<title>33</title>
<path fill="lightcoral" stroke="black" d="M1679,-364C1679,-364 1403,-364 1403,-364 1397,-364 1391,-358 1391,-352 1391,-352 1391,-308 1391,-308 1391,-302 1397,-296 1403,-296 1403,-296 1679,-296 1679,-296 1685,-296 1691,-302 1691,-308 1691,-308 1691,-352 1691,-352 1691,-358 1685,-364 1679,-364"/>
<text text-anchor="middle" x="1541" y="-348.8" font-family="Times,serif" font-size="14.00">33</text>
<text text-anchor="middle" x="1541" y="-333.8" font-family="Times,serif" font-size="14.00">Type: NestLoop</text>
<text text-anchor="middle" x="1541" y="-318.8" font-family="Times,serif" font-size="14.00">Cost: 0.28500000000000003..38.047149999999995</text>
<text text-anchor="middle" x="1541" y="-303.8" font-family="Times,serif" font-size="14.00">Rows: 10</text>
</g>
<!-- 25&#45;&gt;33 -->
<g id="edge30" class="edge">
<title>25&#45;&gt;33</title>
<path fill="none" stroke="black" d="M1358.76,-575.74C1396.63,-524.88 1468.87,-427.87 1510.11,-372.48"/>
<polygon fill="black" stroke="black" points="1513.04,-374.41 1516.21,-364.3 1507.43,-370.23 1513.04,-374.41"/>
</g>
<!-- 34 -->
<g id="node36" class="node">
<title>34</title>
<path fill="lightblue" stroke="black" d="M1897.5,-224C1897.5,-224 1688.5,-224 1688.5,-224 1682.5,-224 1676.5,-218 1676.5,-212 1676.5,-212 1676.5,-168 1676.5,-168 1676.5,-162 1682.5,-156 1688.5,-156 1688.5,-156 1897.5,-156 1897.5,-156 1903.5,-156 1909.5,-162 1909.5,-168 1909.5,-168 1909.5,-212 1909.5,-212 1909.5,-218 1903.5,-224 1897.5,-224"/>
<text text-anchor="middle" x="1793" y="-208.8" font-family="Times,serif" font-size="14.00">34</text>
<text text-anchor="middle" x="1793" y="-193.8" font-family="Times,serif" font-size="14.00">Type: NestLoop</text>
<text text-anchor="middle" x="1793" y="-178.8" font-family="Times,serif" font-size="14.00">Cost: 0.28500000000000003..22.79715</text>
<text text-anchor="middle" x="1793" y="-163.8" font-family="Times,serif" font-size="14.00">Rows: 10</text>
</g>
<!-- 25&#45;&gt;34 -->
<g id="edge46" class="edge">
<title>25&#45;&gt;34</title>
<path fill="none" stroke="black" d="M1438.58,-575.89C1623.69,-517.23 1989.89,-400.9 1992,-398 2020.81,-358.5 2018.23,-329.26 1992,-288 1975.15,-261.49 1956.29,-271.65 1928,-258 1908.47,-248.58 1887.44,-238.23 1867.92,-228.55"/>
<polygon fill="black" stroke="black" points="1869.29,-225.32 1858.77,-224.01 1866.17,-231.59 1869.29,-225.32"/>
</g>
<!-- 38 -->
<g id="node39" class="node">
<title>38</title>
<path fill="lightblue" stroke="black" d="M569.5,-364C569.5,-364 394.5,-364 394.5,-364 388.5,-364 382.5,-358 382.5,-352 382.5,-352 382.5,-308 382.5,-308 382.5,-302 388.5,-296 394.5,-296 394.5,-296 569.5,-296 569.5,-296 575.5,-296 581.5,-302 581.5,-308 581.5,-308 581.5,-352 581.5,-352 581.5,-358 575.5,-364 569.5,-364"/>
<text text-anchor="middle" x="482" y="-348.8" font-family="Times,serif" font-size="14.00">38</text>
<text text-anchor="middle" x="482" y="-333.8" font-family="Times,serif" font-size="14.00">Type: HashJoin</text>
<text text-anchor="middle" x="482" y="-318.8" font-family="Times,serif" font-size="14.00">Cost: 3.535..8.934650000000001</text>
<text text-anchor="middle" x="482" y="-303.8" font-family="Times,serif" font-size="14.00">Rows: 10</text>
</g>
<!-- 25&#45;&gt;38 -->
<g id="edge38" class="edge">
<title>25&#45;&gt;38</title>
<path fill="none" stroke="black" d="M1220.92,-584.29C1190.64,-573.71 1159.54,-558.82 1135,-538 1092.37,-501.83 1121.25,-457.87 1074,-428 984.6,-371.48 700.3,-428.4 599,-398 577.61,-391.58 555.92,-380.64 537.12,-369.45"/>
<polygon fill="black" stroke="black" points="538.77,-366.35 528.41,-364.12 535.12,-372.33 538.77,-366.35"/>
</g>
<!-- 36 -->
<g id="node37" class="node">
<title>36</title>
<path fill="lightblue" stroke="black" d="M1829,-364C1829,-364 1739,-364 1739,-364 1733,-364 1727,-358 1727,-352 1727,-352 1727,-308 1727,-308 1727,-302 1733,-296 1739,-296 1739,-296 1829,-296 1829,-296 1835,-296 1841,-302 1841,-308 1841,-308 1841,-352 1841,-352 1841,-358 1835,-364 1829,-364"/>
<text text-anchor="middle" x="1784" y="-348.8" font-family="Times,serif" font-size="14.00">36</text>
<text text-anchor="middle" x="1784" y="-333.8" font-family="Times,serif" font-size="14.00">Type: NestLoop</text>
<text text-anchor="middle" x="1784" y="-318.8" font-family="Times,serif" font-size="14.00">Cost: 0..1534.345</text>
<text text-anchor="middle" x="1784" y="-303.8" font-family="Times,serif" font-size="14.00">Rows: 10</text>
</g>
<!-- 26&#45;&gt;36 -->
<g id="edge35" class="edge">
<title>26&#45;&gt;36</title>
<path fill="none" stroke="black" d="M1576.23,-575.74C1619.5,-524.78 1702.1,-427.47 1749.07,-372.14"/>
<polygon fill="black" stroke="black" points="1751.93,-374.18 1755.73,-364.3 1746.59,-369.65 1751.93,-374.18"/>
</g>
<!-- 37 -->
<g id="node38" class="node">
<title>37</title>
<path fill="lightblue" stroke="black" d="M2048,-224C2048,-224 1958,-224 1958,-224 1952,-224 1946,-218 1946,-212 1946,-212 1946,-168 1946,-168 1946,-162 1952,-156 1958,-156 1958,-156 2048,-156 2048,-156 2054,-156 2060,-162 2060,-168 2060,-168 2060,-212 2060,-212 2060,-218 2054,-224 2048,-224"/>
<text text-anchor="middle" x="2003" y="-208.8" font-family="Times,serif" font-size="14.00">37</text>
<text text-anchor="middle" x="2003" y="-193.8" font-family="Times,serif" font-size="14.00">Type: NestLoop</text>
<text text-anchor="middle" x="2003" y="-178.8" font-family="Times,serif" font-size="14.00">Cost: 0..1519.095</text>
<text text-anchor="middle" x="2003" y="-163.8" font-family="Times,serif" font-size="14.00">Rows: 10</text>
</g>
<!-- 26&#45;&gt;37 -->
<g id="edge42" class="edge">
<title>26&#45;&gt;37</title>
<path fill="none" stroke="black" d="M1613.17,-604.64C1744.12,-595.23 2029.17,-571.12 2058,-538 2130.95,-454.19 2086.34,-395.44 2058,-288 2052.92,-268.73 2043.03,-249.28 2033.02,-232.9"/>
<polygon fill="black" stroke="black" points="2035.78,-230.72 2027.48,-224.14 2029.87,-234.46 2035.78,-230.72"/>
</g>
<!-- 30 -->
<g id="node33" class="node">
<title>30</title>
<path fill="lightblue" stroke="black" d="M334.5,-364C334.5,-364 125.5,-364 125.5,-364 119.5,-364 113.5,-358 113.5,-352 113.5,-352 113.5,-308 113.5,-308 113.5,-302 119.5,-296 125.5,-296 125.5,-296 334.5,-296 334.5,-296 340.5,-296 346.5,-302 346.5,-308 346.5,-308 346.5,-352 346.5,-352 346.5,-358 340.5,-364 334.5,-364"/>
<text text-anchor="middle" x="230" y="-348.8" font-family="Times,serif" font-size="14.00">30</text>
<text text-anchor="middle" x="230" y="-333.8" font-family="Times,serif" font-size="14.00">Type: NestLoop</text>
<text text-anchor="middle" x="230" y="-318.8" font-family="Times,serif" font-size="14.00">Cost: 0.28500000000000003..22.57215</text>
<text text-anchor="middle" x="230" y="-303.8" font-family="Times,serif" font-size="14.00">Rows: 10</text>
</g>
<!-- 31&#45;&gt;30 -->
<g id="edge1" class="edge">
<title>31&#45;&gt;30</title>
<path fill="none" stroke="black" d="M696.9,-460.61C605.39,-451.55 474.11,-433.36 364,-398 340.81,-390.55 316.67,-379.59 295.36,-368.68"/>
<polygon fill="black" stroke="black" points="296.9,-365.54 286.41,-364.02 293.66,-371.75 296.9,-365.54"/>
</g>
<!-- 27 -->
<g id="node29" class="node">
<title>27</title>
<path fill="lightblue" stroke="black" d="M1045,-504C1045,-504 971,-504 971,-504 965,-504 959,-498 959,-492 959,-492 959,-448 959,-448 959,-442 965,-436 971,-436 971,-436 1045,-436 1045,-436 1051,-436 1057,-442 1057,-448 1057,-448 1057,-492 1057,-492 1057,-498 1051,-504 1045,-504"/>
<text text-anchor="middle" x="1008" y="-488.8" font-family="Times,serif" font-size="14.00">27</text>
<text text-anchor="middle" x="1008" y="-473.8" font-family="Times,serif" font-size="14.00">Type: SeqScan</text>
<text text-anchor="middle" x="1008" y="-458.8" font-family="Times,serif" font-size="14.00">Cost: 0..2</text>
<text text-anchor="middle" x="1008" y="-443.8" font-family="Times,serif" font-size="14.00">Rows: 100</text>
</g>
<!-- 27&#45;&gt;28 -->
<g id="edge13" class="edge">
<title>27&#45;&gt;28</title>
<path fill="none" stroke="black" d="M958.76,-438.5C952.8,-434.92 946.78,-431.35 941,-428 906.5,-408 867.69,-386.62 835.23,-369.03"/>
<polygon fill="black" stroke="black" points="836.71,-365.85 826.25,-364.17 833.38,-372.01 836.71,-365.85"/>
</g>
<!-- 27&#45;&gt;29 -->
<g id="edge44" class="edge">
<title>27&#45;&gt;29</title>
<path fill="none" stroke="black" d="M1020.46,-435.95C1027.48,-417.31 1036.33,-393.81 1043.88,-373.78"/>
<polygon fill="black" stroke="black" points="1047.22,-374.85 1047.47,-364.26 1040.66,-372.39 1047.22,-374.85"/>
</g>
<!-- 27&#45;&gt;30 -->
<g id="edge3" class="edge">
<title>27&#45;&gt;30</title>
<path fill="none" stroke="black" d="M959.94,-435.81C953.78,-432.7 947.38,-429.98 941,-428 695.72,-351.98 612.3,-463.47 364,-398 339.46,-391.53 314.17,-380.26 292.25,-368.79"/>
<polygon fill="black" stroke="black" points="293.87,-365.69 283.4,-364.05 290.56,-371.86 293.87,-365.69"/>
</g>
<!-- 27&#45;&gt;32 -->
<g id="edge48" class="edge">
<title>27&#45;&gt;32</title>
<path fill="none" stroke="black" d="M1057.34,-453.82C1095.1,-441.28 1147.84,-421.71 1191,-398 1205.52,-390.02 1220.37,-380.01 1233.75,-370.18"/>
<polygon fill="black" stroke="black" points="1235.96,-372.9 1241.87,-364.11 1231.76,-367.29 1235.96,-372.9"/>
</g>
<!-- 27&#45;&gt;33 -->
<g id="edge51" class="edge">
<title>27&#45;&gt;33</title>
<path fill="none" stroke="black" d="M1057.26,-462.35C1127.88,-452.15 1261.55,-430.36 1372,-398 1400.18,-389.74 1430.19,-378.64 1456.99,-367.85"/>
<polygon fill="black" stroke="black" points="1458.38,-371.06 1466.33,-364.05 1455.75,-364.58 1458.38,-371.06"/>
</g>
<!-- 27&#45;&gt;36 -->
<g id="edge21" class="edge">
<title>27&#45;&gt;36</title>
<path fill="none" stroke="black" d="M1057.38,-467.94C1196.93,-464.32 1591.74,-449.67 1709,-398 1723.15,-391.77 1736.49,-381.83 1747.88,-371.49"/>
<polygon fill="black" stroke="black" points="1750.6,-373.74 1755.44,-364.31 1745.78,-368.66 1750.6,-373.74"/>
</g>
<!-- 27&#45;&gt;38 -->
<g id="edge4" class="edge">
<title>27&#45;&gt;38</title>
<path fill="none" stroke="black" d="M959.5,-435.84C953.46,-432.77 947.22,-430.05 941,-428 796.08,-380.25 744.6,-443.64 599,-398 577.79,-391.35 556.22,-380.42 537.47,-369.29"/>
<polygon fill="black" stroke="black" points="539.15,-366.21 528.78,-364 535.51,-372.19 539.15,-366.21"/>
</g>
<!-- 35 -->
<g id="node30" class="node">
<title>35</title>
<path fill="lightblue" stroke="black" d="M1963,-364C1963,-364 1889,-364 1889,-364 1883,-364 1877,-358 1877,-352 1877,-352 1877,-308 1877,-308 1877,-302 1883,-296 1889,-296 1889,-296 1963,-296 1963,-296 1969,-296 1975,-302 1975,-308 1975,-308 1975,-352 1975,-352 1975,-358 1969,-364 1963,-364"/>
<text text-anchor="middle" x="1926" y="-348.8" font-family="Times,serif" font-size="14.00">35</text>
<text text-anchor="middle" x="1926" y="-333.8" font-family="Times,serif" font-size="14.00">Type: Material</text>
<text text-anchor="middle" x="1926" y="-318.8" font-family="Times,serif" font-size="14.00">Cost: 0..2.5</text>
<text text-anchor="middle" x="1926" y="-303.8" font-family="Times,serif" font-size="14.00">Rows: 100</text>
</g>
<!-- 35&#45;&gt;34 -->
<g id="edge47" class="edge">
<title>35&#45;&gt;34</title>
<path fill="none" stroke="black" d="M1894.14,-295.95C1875.53,-276.63 1851.88,-252.1 1832.14,-231.61"/>
<polygon fill="black" stroke="black" points="1834.52,-229.03 1825.06,-224.26 1829.48,-233.89 1834.52,-229.03"/>
</g>
<!-- 35&#45;&gt;37 -->
<g id="edge7" class="edge">
<title>35&#45;&gt;37</title>
<path fill="none" stroke="black" d="M1944.44,-295.95C1954.94,-277.14 1968.19,-253.39 1979.43,-233.24"/>
<polygon fill="black" stroke="black" points="1982.62,-234.7 1984.44,-224.26 1976.51,-231.29 1982.62,-234.7"/>
</g>
<!-- 39 -->
<g id="node40" class="node">
<title>39</title>
<path fill="lightblue" stroke="black" d="M1393.5,-224C1393.5,-224 1272.5,-224 1272.5,-224 1266.5,-224 1260.5,-218 1260.5,-212 1260.5,-212 1260.5,-168 1260.5,-168 1260.5,-162 1266.5,-156 1272.5,-156 1272.5,-156 1393.5,-156 1393.5,-156 1399.5,-156 1405.5,-162 1405.5,-168 1405.5,-168 1405.5,-212 1405.5,-212 1405.5,-218 1399.5,-224 1393.5,-224"/>
<text text-anchor="middle" x="1333" y="-208.8" font-family="Times,serif" font-size="14.00">39</text>
<text text-anchor="middle" x="1333" y="-193.8" font-family="Times,serif" font-size="14.00">Type: Limit</text>
<text text-anchor="middle" x="1333" y="-178.8" font-family="Times,serif" font-size="14.00">Cost: 5.67215..8.14715</text>
<text text-anchor="middle" x="1333" y="-163.8" font-family="Times,serif" font-size="14.00">Rows: 10</text>
</g>
<!-- 29&#45;&gt;39 -->
<g id="edge19" class="edge">
<title>29&#45;&gt;39</title>
<path fill="none" stroke="black" d="M1158.96,-295.82C1186.52,-285.14 1216,-272.31 1242,-258 1256.52,-250.01 1271.36,-239.99 1284.74,-230.17"/>
<polygon fill="black" stroke="black" points="1286.95,-232.88 1292.86,-224.09 1282.75,-227.28 1286.95,-232.88"/>
</g>
<!-- 41 -->
<g id="node42" class="node">
<title>41</title>
<path fill="lightblue" stroke="black" d="M1212.5,-224C1212.5,-224 1003.5,-224 1003.5,-224 997.5,-224 991.5,-218 991.5,-212 991.5,-212 991.5,-168 991.5,-168 991.5,-162 997.5,-156 1003.5,-156 1003.5,-156 1212.5,-156 1212.5,-156 1218.5,-156 1224.5,-162 1224.5,-168 1224.5,-168 1224.5,-212 1224.5,-212 1224.5,-218 1218.5,-224 1212.5,-224"/>
<text text-anchor="middle" x="1108" y="-208.8" font-family="Times,serif" font-size="14.00">41</text>
<text text-anchor="middle" x="1108" y="-193.8" font-family="Times,serif" font-size="14.00">Type: Limit</text>
<text text-anchor="middle" x="1108" y="-178.8" font-family="Times,serif" font-size="14.00">Cost: 0.28500000000000003..22.57215</text>
<text text-anchor="middle" x="1108" y="-163.8" font-family="Times,serif" font-size="14.00">Rows: 10</text>
</g>
<!-- 30&#45;&gt;41 -->
<g id="edge15" class="edge">
<title>30&#45;&gt;41</title>
<path fill="none" stroke="black" d="M331.59,-295.98C342.47,-293.03 353.42,-290.29 364,-288 578.21,-241.61 832.24,-214.3 981.21,-201.02"/>
<polygon fill="black" stroke="black" points="981.65,-204.5 991.31,-200.13 981.04,-197.53 981.65,-204.5"/>
</g>
<!-- 40 -->
<g id="node41" class="node">
<title>40</title>
<path fill="lightblue" stroke="black" d="M1628.5,-224C1628.5,-224 1453.5,-224 1453.5,-224 1447.5,-224 1441.5,-218 1441.5,-212 1441.5,-212 1441.5,-168 1441.5,-168 1441.5,-162 1447.5,-156 1453.5,-156 1453.5,-156 1628.5,-156 1628.5,-156 1634.5,-156 1640.5,-162 1640.5,-168 1640.5,-168 1640.5,-212 1640.5,-212 1640.5,-218 1634.5,-224 1628.5,-224"/>
<text text-anchor="middle" x="1541" y="-208.8" font-family="Times,serif" font-size="14.00">40</text>
<text text-anchor="middle" x="1541" y="-193.8" font-family="Times,serif" font-size="14.00">Type: Limit</text>
<text text-anchor="middle" x="1541" y="-178.8" font-family="Times,serif" font-size="14.00">Cost: 3.535..8.934650000000001</text>
<text text-anchor="middle" x="1541" y="-163.8" font-family="Times,serif" font-size="14.00">Rows: 10</text>
</g>
<!-- 33&#45;&gt;40 -->
<g id="edge12" class="edge">
<title>33&#45;&gt;40</title>
<path fill="none" stroke="black" d="M1541,-295.95C1541,-277.48 1541,-254.24 1541,-234.33"/>
<polygon fill="black" stroke="black" points="1544.5,-234.26 1541,-224.26 1537.5,-234.26 1544.5,-234.26"/>
</g>
<!-- 42 -->
<g id="node43" class="node">
<title>42</title>
<path fill="lightblue" stroke="black" d="M2048,-84C2048,-84 1958,-84 1958,-84 1952,-84 1946,-78 1946,-72 1946,-72 1946,-28 1946,-28 1946,-22 1952,-16 1958,-16 1958,-16 2048,-16 2048,-16 2054,-16 2060,-22 2060,-28 2060,-28 2060,-72 2060,-72 2060,-78 2054,-84 2048,-84"/>
<text text-anchor="middle" x="2003" y="-68.8" font-family="Times,serif" font-size="14.00">42</text>
<text text-anchor="middle" x="2003" y="-53.8" font-family="Times,serif" font-size="14.00">Type: Limit</text>
<text text-anchor="middle" x="2003" y="-38.8" font-family="Times,serif" font-size="14.00">Cost: 0..1519.095</text>
<text text-anchor="middle" x="2003" y="-23.8" font-family="Times,serif" font-size="14.00">Rows: 10</text>
</g>
<!-- 37&#45;&gt;42 -->
<g id="edge5" class="edge">
<title>37&#45;&gt;42</title>
<path fill="none" stroke="black" d="M2003,-155.95C2003,-137.48 2003,-114.24 2003,-94.33"/>
<polygon fill="black" stroke="black" points="2006.5,-94.26 2003,-84.26 1999.5,-94.26 2006.5,-94.26"/>
</g>
</g>
</svg>
